<svg width="457" height="653" viewBox="0 0 457 653" fill="none" xmlns="http://www.w3.org/2000/svg">
<rect x="89" width="368" height="653" rx="30" fill="#D9D9D9"/>
<rect y="57" width="314" height="596" rx="30" fill="#D9D9D9"/>
<path d="M66.6 58L69.2 57.661L70.9333 57.322L72.2333 56.9831L73.5333 56.6441L74.4 56.3051L76.1333 55.6271L77.8667 54.9492L79.6 53.9322L81.3333 52.9153L81.7667 52.5763L82.2 52.2373L82.6333 51.8983L83.0667 51.5593L83.5 51.2203L84.8 49.8644L85.6667 48.8475L86.5333 47.8305L87.4 46.4746L87.8333 45.7966L88.2667 45.1186L88.7 44.1017L89.1333 42.7458L89.5667 41.3898V41.0508L90 38V58H66.6Z" fill="#D9D9D9"/>
<path d="M66.6 58H64.8667H64H90M66.6 58L69.2 57.661L70.9333 57.322L72.2333 56.9831L73.5333 56.6441L74.4 56.3051L76.1333 55.6271L77.8667 54.9492L79.6 53.9322L81.3333 52.9153L81.7667 52.5763L82.2 52.2373L82.6333 51.8983L83.0667 51.5593L83.5 51.2203L84.8 49.8644L85.6667 48.8475L86.5333 47.8305L87.4 46.4746L87.8333 45.7966L88.2667 45.1186L88.7 44.1017L89.1333 42.7458L89.5667 41.3898V41.0508L90 38V58M66.6 58H90" stroke="#D9D9D9"/>
</svg>
