<svg width="457" height="653" viewBox="0 0 457 653" fill="none" xmlns="http://www.w3.org/2000/svg">
<rect x="89" width="368" height="653" rx="30" fill="#D9D9D9"/>
<rect y="57" width="314" height="596" rx="30" fill="#D9D9D9"/>
<path d="M72.9 58L74.8 57.7458L76.0667 57.4915L77.0167 57.2373L77.9667 56.9831L78.6 56.7288L79.8667 56.2203L81.1333 55.7119L82.4 54.9492L83.6667 54.1864L83.9833 53.9322L84.3 53.678L84.6167 53.4237L84.9333 53.1695L85.25 52.9153L86.2 51.8983L86.8333 51.1356L87.4667 50.3729L88.1 49.3559L88.4167 48.8475L88.7333 48.339L89.05 47.5763L89.3667 46.5593L89.6833 45.5424V45.2881L90 43V58H72.9Z" fill="#D9D9D9"/>
<path d="M72.9 58H71.6333H71H90M72.9 58L74.8 57.7458L76.0667 57.4915L77.0167 57.2373L77.9667 56.9831L78.6 56.7288L79.8667 56.2203L81.1333 55.7119L82.4 54.9492L83.6667 54.1864L83.9833 53.9322L84.3 53.678L84.6167 53.4237L84.9333 53.1695L85.25 52.9153L86.2 51.8983L86.8333 51.1356L87.4667 50.3729L88.1 49.3559L88.4167 48.8475L88.7333 48.339L89.05 47.5763L89.3667 46.5593L89.6833 45.5424V45.2881L90 43V58M72.9 58H90" stroke="#D9D9D9"/>
</svg>
