<svg width="100" height="36" viewBox="0 0 100 36" fill="none" xmlns="http://www.w3.org/2000/svg">
<path d="M61.1868 0.152344H56.0879V5.25127H61.1868V30.7459H56.0879V35.8448H61.1868H66.2857H71.3847V30.7459H66.2857V5.25127H71.3847V0.152344H66.2857H61.1868Z" fill="currentColor"></path>
<path d="M99.4282 0.152344H73.9336V5.25127H99.4282V0.152344Z" fill="currentColor"></path>
<path d="M84.1328 10.3522V35.8468H89.2317V10.3522V7.80273H84.1328V10.3522Z" fill="currentColor"></path>
<path d="M7.64844 15.4551V20.554H10.1979H15.2968V15.4551H10.1979H7.64844Z" fill="currentColor"></path>
<path d="M0 10.3502V25.647C0 31.2749 4.56991 35.8448 10.1979 35.8448H20.3957V30.7459H10.1979C7.38069 30.7459 5.09893 28.4641 5.09893 25.647V10.3502C5.09893 7.53304 7.38069 5.25127 10.1979 5.25127H20.3957V0.152344H10.1979C4.56991 0.152344 0 4.72226 0 10.3502Z" fill="currentColor"></path>
<path d="M50.9825 5.25127H53.532V0.152344H50.9825C47.8403 0.152344 44.8957 1.82862 43.2895 4.52467L38.2416 13.008L33.1936 4.52467C31.5875 1.82862 28.6365 0.152344 25.5006 0.152344H22.9512V5.25127H25.5006C26.8518 5.25127 28.1202 5.97149 28.8149 7.13787L35.2778 17.9986L28.8149 28.8593C28.1202 30.0193 26.8518 30.7459 25.5006 30.7459H22.9512V35.8448H25.5006C28.6428 35.8448 31.5875 34.1686 33.1936 31.4725L38.2416 22.9892L43.2895 31.4725C44.8957 34.1686 47.8467 35.8448 50.9825 35.8448H53.532V30.7459H50.9825C49.6313 30.7459 48.3629 30.0257 47.6682 28.8593L41.2053 17.9986L47.6682 7.13787C48.3566 5.97787 49.6313 5.25127 50.9825 5.25127Z" fill="currentColor"></path>
</svg>