<svg width="120" height="32" viewBox="0 0 120 32" fill="none" xmlns="http://www.w3.org/2000/svg">
<g clip-path="url(#clip0_100_49974)">
<path fill-rule="evenodd" clip-rule="evenodd" d="M77.9753 9.7358V26.669H81.951V12.8229H84.3773V22.2376C84.37 23.2959 84.5969 24.1778 85.0582 24.8834C85.5268 25.5889 86.1601 26.1108 86.9582 26.4488C87.7563 26.7796 88.6532 26.9302 89.6489 26.9008C90.2127 26.8861 90.6886 26.8347 91.0766 26.7465C91.472 26.6583 91.7759 26.5774 91.9882 26.504L91.3183 23.3841C91.2084 23.4135 91.0474 23.4466 90.835 23.4833C90.63 23.5201 90.403 23.5384 90.1541 23.5384C89.8246 23.5384 89.5244 23.487 89.2535 23.3841C88.9826 23.2812 88.763 23.0901 88.5946 22.8108C88.4335 22.5242 88.353 22.1126 88.353 21.5761V12.8229H91.6807V9.73609H88.353V5.67918H84.3773V9.73609H81.951V9.7358H77.9753ZM78.3487 6.70414C78.8027 7.12306 79.3445 7.33252 79.9741 7.33252C80.6111 7.33252 81.1529 7.12306 81.5995 6.70414C82.0535 6.27787 82.2805 5.76708 82.2805 5.17177C82.2805 4.56912 82.0535 4.05833 81.5995 3.6394C81.1529 3.21313 80.6111 3 79.9741 3C79.3445 3 78.8027 3.21313 78.3487 3.6394C77.8948 4.05833 77.6678 4.56912 77.6678 5.17177C77.6678 5.76708 77.8948 6.27787 78.3487 6.70414ZM96.5599 16.7471V26.6689H92.5842V4.0913H96.472V12.613H96.6697C97.0651 11.6576 97.6764 10.9043 98.5038 10.3531C99.3384 9.7945 100.4 9.51522 101.689 9.51522C102.86 9.51522 103.882 9.76143 104.753 10.2538C105.624 10.7463 106.298 11.4665 106.774 12.4146C107.257 13.3627 107.498 14.5202 107.498 15.8872V26.6689H103.523V16.5046C103.523 15.3654 103.23 14.4798 102.644 13.8477C102.066 13.2083 101.253 12.8886 100.206 12.8886C99.5032 12.8886 98.8735 13.043 98.3171 13.3517C97.7679 13.653 97.336 14.0903 97.0211 14.6635C96.7136 15.2368 96.5599 15.9313 96.5599 16.7471ZM76.6719 4.0913V26.6689H72.6962V4.0913H76.6719ZM59.7384 25.9086C60.9465 26.6362 62.3743 27 64.0216 27C65.669 27 67.0968 26.6362 68.3048 25.9086C69.5129 25.181 70.4464 24.1631 71.1054 22.8549C71.7717 21.5467 72.1048 20.018 72.1048 18.2688C72.1048 16.5196 71.7717 14.9873 71.1054 13.6717C70.4464 12.3561 69.5129 11.3346 68.3048 10.607C67.0968 9.87937 65.669 9.51557 64.0216 9.51557C62.3743 9.51557 60.9465 9.87937 59.7384 10.607C58.5304 11.3346 57.5932 12.3561 56.9269 13.6717C56.268 14.9873 55.9385 16.5196 55.9385 18.2688C55.9385 20.018 56.268 21.5467 56.9269 22.8549C57.5932 24.1631 58.5304 25.181 59.7384 25.9086ZM66.284 23.0644C65.6837 23.5568 64.9369 23.803 64.0436 23.803C63.1284 23.803 62.3669 23.5568 61.7592 23.0644C61.1589 22.5646 60.7086 21.8958 60.4084 21.0579C60.1155 20.2201 59.9691 19.2867 59.9691 18.2578C59.9691 17.2215 60.1155 16.2844 60.4084 15.4466C60.7086 14.6014 61.1589 13.9289 61.7592 13.4292C62.3669 12.9294 63.1284 12.6795 64.0436 12.6795C64.9369 12.6795 65.6837 12.9294 66.284 13.4292C66.8844 13.9289 67.331 14.6014 67.6239 15.4466C67.9241 16.2844 68.0742 17.2215 68.0742 18.2578C68.0742 19.2867 67.9241 20.2201 67.6239 21.0579C67.331 21.8958 66.8844 22.5646 66.284 23.0644ZM44.5774 16.7475V26.6693H40.6017V9.73605H44.4017V12.6134H44.5993C44.9874 11.6653 45.6061 10.912 46.4554 10.3534C47.312 9.79485 48.37 9.51557 49.6294 9.51557C50.7935 9.51557 51.8076 9.76545 52.6715 10.2652C53.5428 10.765 54.2164 11.4889 54.6923 12.437C55.1755 13.3851 55.4135 14.5353 55.4062 15.8876V26.6693H51.4305V16.5049C51.4305 15.3731 51.1376 14.4875 50.5519 13.8481C49.9735 13.2087 49.1718 12.889 48.1467 12.889C47.4512 12.889 46.8325 13.0433 46.2907 13.352C45.7562 13.6533 45.3352 14.0906 45.0277 14.6639C44.7275 15.2371 44.5774 15.9317 44.5774 16.7475ZM27.6438 25.9087C28.8519 26.6363 30.2796 27.0001 31.927 27.0001C33.5744 27.0001 35.0021 26.6363 36.2102 25.9087C37.4183 25.1811 38.3518 24.1632 39.0108 22.855C39.677 21.5468 40.0102 20.0181 40.0102 18.2689C40.0102 16.5197 39.677 14.9874 39.0108 13.6718C38.3518 12.3562 37.4183 11.3347 36.2102 10.6071C35.0021 9.87947 33.5744 9.51567 31.927 9.51567C30.2796 9.51567 28.8519 9.87947 27.6438 10.6071C26.4358 11.3347 25.4986 12.3562 24.8323 13.6718C24.1733 14.9874 23.8439 16.5197 23.8439 18.2689C23.8439 20.0181 24.1733 21.5468 24.8323 22.855C25.4986 24.1632 26.4358 25.1811 27.6438 25.9087ZM34.1894 23.0645C33.5891 23.5569 32.8422 23.8031 31.949 23.8031C31.0338 23.8031 30.2723 23.5569 29.6646 23.0645C29.0642 22.5647 28.614 21.8959 28.3138 21.058C28.0209 20.2202 27.8745 19.2868 27.8745 18.2579C27.8745 17.2216 28.0209 16.2845 28.3138 15.4467C28.614 14.6015 29.0642 13.929 29.6646 13.4293C30.2723 12.9295 31.0338 12.6796 31.949 12.6796C32.8422 12.6796 33.5891 12.9295 34.1894 13.4293C34.7898 13.929 35.2364 14.6015 35.5293 15.4467C35.8295 16.2845 35.9796 17.2216 35.9796 18.2579C35.9796 19.2868 35.8295 20.2202 35.5293 21.058C35.2364 21.8959 34.7898 22.5647 34.1894 23.0645ZM-0.5 4.0913H4.48608L11.1635 20.4513H11.427L18.1044 4.0913H23.0905V26.6689H19.1807V11.1578H18.9721L12.7559 26.6028H9.83458L3.61846 11.1248H3.40979V26.6689H-0.5V4.0913ZM113.7 4.33594L113.716 9.32794H114.948V7.45594L114.932 5.90394H114.964L116.324 9.32794H117.316L118.676 5.90394H118.724L118.692 7.45594V9.32794H119.956V4.33594H118.164L116.852 7.71194H116.804L115.476 4.33594H113.7ZM110.084 5.47194V9.32794H111.412V5.47194H112.964V4.33594H108.58V5.47194H110.084Z" fill="black"/>
</g>
<defs>
<clipPath id="clip0_100_49974">
<rect width="120" height="32" fill="white"/>
</clipPath>
</defs>
</svg>
