<svg width="331" height="60" viewBox="0 0 331 60" fill="none" xmlns="http://www.w3.org/2000/svg">
<path d="M23.1171 60C18.0881 60 13.8703 59.2663 10.4635 57.7989C7.11087 56.2772 4.54231 54.3207 2.75783 51.9293C1.02743 49.4837 0.10815 46.9293 0 44.2663C0 43.7772 0.162225 43.3696 0.486676 43.0435C0.811126 42.7174 1.21669 42.5543 1.70337 42.5543H8.92239C9.62536 42.5543 10.1391 42.7174 10.4635 43.0435C10.8421 43.3152 11.1665 43.6685 11.4369 44.1033C11.7613 45.1359 12.3832 46.1685 13.3025 47.2011C14.2217 48.1793 15.4655 48.9946 17.0337 49.6467C18.6559 50.2989 20.6837 50.625 23.1171 50.625C27.0105 50.625 29.9035 49.9728 31.7961 48.6685C33.7429 47.3641 34.7162 45.5978 34.7162 43.3696C34.7162 41.7935 34.2025 40.5435 33.1751 39.6196C32.1476 38.6413 30.5524 37.7717 28.3894 37.0109C26.2805 36.1957 23.4686 35.3533 19.9537 34.4837C15.8981 33.5054 12.4913 32.337 9.73351 30.9783C7.02976 29.5652 4.97491 27.7989 3.56896 25.6793C2.21708 23.5598 1.54114 20.8696 1.54114 17.6087C1.54114 14.4565 2.3793 11.6576 4.05563 9.21196C5.78603 6.7663 8.21941 4.83696 11.3558 3.42391C14.5462 2.01087 18.3315 1.30434 22.7115 1.30434C26.2264 1.30434 29.3357 1.79348 32.0395 2.77174C34.7432 3.69565 36.9874 4.94565 38.7718 6.52174C40.5563 8.04348 41.9082 9.70109 42.8275 11.4946C43.8008 13.2337 44.3145 14.9457 44.3686 16.6304C44.3686 17.0652 44.2064 17.4728 43.8819 17.8533C43.6116 18.1793 43.206 18.3424 42.6652 18.3424H35.1218C34.6892 18.3424 34.2566 18.2337 33.824 18.0163C33.3914 17.7989 33.0399 17.3913 32.7695 16.7935C32.445 15.1087 31.3906 13.6685 29.6061 12.4728C27.8216 11.2772 25.5234 10.6793 22.7115 10.6793C19.7915 10.6793 17.4392 11.2228 15.6547 12.3098C13.8703 13.3967 12.978 15.0815 12.978 17.3641C12.978 18.8859 13.4106 20.163 14.2758 21.1957C15.1951 22.1739 16.6281 23.0435 18.5748 23.8043C20.5756 24.5652 23.1982 25.3804 26.4427 26.25C31.0391 27.2826 34.7973 28.4783 37.7174 29.837C40.6374 31.1957 42.7734 32.9348 44.1253 35.0543C45.4771 37.1196 46.1531 39.7554 46.1531 42.962C46.1531 46.5489 45.1797 49.6196 43.233 52.1739C41.3404 54.6739 38.6637 56.6033 35.2029 57.962C31.7421 59.3207 27.7135 60 23.1171 60ZM54.8132 59.1848C54.2725 59.1848 53.8128 58.9946 53.4343 58.6141C53.0558 58.2337 52.8665 57.7717 52.8665 57.2283V3.26087C52.8665 2.71739 53.0558 2.25544 53.4343 1.875C53.8128 1.49457 54.2725 1.30434 54.8132 1.30434H61.3833C61.9782 1.30434 62.4378 1.49457 62.7622 1.875C63.1408 2.25544 63.33 2.71739 63.33 3.26087V31.1413L76.9569 18.1793C77.4436 17.7446 77.8762 17.4185 78.2548 17.2011C78.6333 16.9293 79.2011 16.7935 79.9581 16.7935H87.5016C88.0423 16.7935 88.4749 16.9565 88.7994 17.2826C89.1238 17.6087 89.2861 18.0435 89.2861 18.587C89.2861 18.8043 89.232 19.0489 89.1238 19.3207C89.0157 19.5924 88.7994 19.837 88.4749 20.0543L71.7657 35.788L90.5028 56.0054C91.0435 56.5489 91.3139 57.0109 91.3139 57.3913C91.3139 57.9348 91.1246 58.3696 90.7461 58.6957C90.4216 59.0217 90.0161 59.1848 89.5294 59.1848H81.8237C81.0126 59.1848 80.4178 59.0761 80.0392 58.8587C79.7148 58.587 79.3092 58.2337 78.8225 57.7989L63.33 41.413V57.2283C63.33 57.7717 63.1408 58.2337 62.7622 58.6141C62.4378 58.9946 61.9782 59.1848 61.3833 59.1848H54.8132ZM97.6386 59.1848C97.0979 59.1848 96.6383 58.9946 96.2597 58.6141C95.8812 58.2337 95.6916 57.7717 95.6916 57.2283V18.75C95.6916 18.2065 95.8812 17.7446 96.2597 17.3641C96.6383 16.9837 97.0979 16.7935 97.6386 16.7935H104.371C104.966 16.7935 105.425 16.9837 105.75 17.3641C106.128 17.7446 106.318 18.2065 106.318 18.75V57.2283C106.318 57.7717 106.128 58.2337 105.75 58.6141C105.425 58.9946 104.966 59.1848 104.371 59.1848H97.6386ZM97.3142 9.78261C96.7194 9.78261 96.2327 9.61957 95.8542 9.29348C95.5297 8.91304 95.3675 8.42391 95.3675 7.82609V1.95652C95.3675 1.41304 95.5297 0.951084 95.8542 0.570649C96.2327 0.190214 96.7194 0 97.3142 0H104.695C105.29 0 105.777 0.190214 106.155 0.570649C106.534 0.951084 106.723 1.41304 106.723 1.95652V7.82609C106.723 8.42391 106.534 8.91304 106.155 9.29348C105.777 9.61957 105.29 9.78261 104.695 9.78261H97.3142ZM118.999 59.1848C118.459 59.1848 117.999 58.9946 117.62 58.6141C117.242 58.2337 117.053 57.7717 117.053 57.2283V18.75C117.053 18.2065 117.242 17.7446 117.62 17.3641C117.999 16.9837 118.459 16.7935 118.999 16.7935H125.651C126.191 16.7935 126.651 16.9837 127.029 17.3641C127.408 17.7446 127.597 18.2065 127.597 18.75V22.0924C129.003 20.3533 130.788 18.913 132.951 17.7717C135.168 16.5761 137.899 15.9783 141.143 15.9783C144.442 15.9783 147.308 16.7391 149.741 18.2609C152.174 19.7283 154.04 21.8207 155.338 24.538C156.69 27.2554 157.366 30.5163 157.366 34.3207V57.2283C157.366 57.7717 157.176 58.2337 156.798 58.6141C156.419 58.9946 155.96 59.1848 155.419 59.1848H148.281C147.74 59.1848 147.281 58.9946 146.902 58.6141C146.524 58.2337 146.334 57.7717 146.334 57.2283V34.8098C146.334 31.6576 145.55 29.1848 143.982 27.3913C142.468 25.5978 140.251 24.7011 137.331 24.7011C134.519 24.7011 132.275 25.5978 130.598 27.3913C128.922 29.1848 128.084 31.6576 128.084 34.8098V57.2283C128.084 57.7717 127.895 58.2337 127.516 58.6141C127.138 58.9946 126.678 59.1848 126.137 59.1848H118.999ZM168.899 59.1848C168.358 59.1848 167.898 58.9946 167.52 58.6141C167.141 58.2337 166.952 57.7717 166.952 57.2283V4.15761C166.952 3.55978 167.141 3.07065 167.52 2.69022C167.898 2.30978 168.358 2.11957 168.899 2.11957H189.907C196.45 2.11957 201.614 3.6413 205.399 6.68478C209.185 9.72826 211.077 14.1576 211.077 19.9728C211.077 23.9946 210.077 27.337 208.076 30C206.129 32.663 203.507 34.5924 200.208 35.788L212.051 56.5761C212.213 56.9022 212.294 57.2011 212.294 57.4728C212.294 57.962 212.105 58.3696 211.726 58.6957C211.402 59.0217 211.023 59.1848 210.591 59.1848H203.209C202.29 59.1848 201.587 58.9402 201.1 58.4511C200.614 57.962 200.235 57.4728 199.965 56.9837L189.501 37.663H178.227V57.2283C178.227 57.7717 178.037 58.2337 177.659 58.6141C177.334 58.9946 176.875 59.1848 176.28 59.1848H168.899ZM178.227 28.4511H189.664C192.962 28.4511 195.423 27.7174 197.045 26.25C198.667 24.7283 199.478 22.6087 199.478 19.8913C199.478 17.1739 198.667 15.0543 197.045 13.5326C195.477 11.9565 193.016 11.1685 189.664 11.1685H178.227V28.4511ZM231.114 60C228.302 60 225.76 59.4565 223.489 58.3696C221.218 57.2283 219.407 55.7337 218.055 53.8859C216.757 51.9837 216.108 49.8641 216.108 47.5272C216.108 43.7228 217.622 40.7065 220.65 38.4783C223.733 36.1957 227.788 34.6739 232.817 33.913L243.93 32.2826V30.5707C243.93 28.288 243.362 26.5217 242.226 25.2717C241.091 24.0217 239.144 23.3967 236.386 23.3967C234.439 23.3967 232.844 23.8043 231.601 24.6196C230.411 25.3804 229.519 26.413 228.924 27.7174C228.491 28.4239 227.869 28.7772 227.058 28.7772H220.65C220.056 28.7772 219.596 28.6141 219.271 28.288C219.001 27.962 218.866 27.5272 218.866 26.9837C218.92 26.1141 219.271 25.0543 219.92 23.8043C220.569 22.5543 221.597 21.3587 223.003 20.2174C224.409 19.0217 226.22 18.0163 228.437 17.2011C230.654 16.3859 233.331 15.9783 236.467 15.9783C239.874 15.9783 242.74 16.413 245.065 17.2826C247.445 18.0978 249.337 19.212 250.743 20.625C252.149 22.038 253.176 23.6957 253.825 25.5978C254.474 27.5 254.799 29.5109 254.799 31.6304V57.2283C254.799 57.7717 254.609 58.2337 254.231 58.6141C253.852 58.9946 253.393 59.1848 252.852 59.1848H246.282C245.687 59.1848 245.2 58.9946 244.822 58.6141C244.497 58.2337 244.335 57.7717 244.335 57.2283V54.0489C243.632 55.0815 242.686 56.0598 241.496 56.9837C240.307 57.8533 238.847 58.587 237.116 59.1848C235.44 59.7283 233.439 60 231.114 60ZM233.872 52.2554C235.764 52.2554 237.468 51.8478 238.982 51.0326C240.55 50.2174 241.767 48.9674 242.632 47.2826C243.551 45.5435 244.011 43.3696 244.011 40.7609V39.0489L235.9 40.3533C232.709 40.8424 230.33 41.6304 228.762 42.7174C227.193 43.8043 226.409 45.1359 226.409 46.712C226.409 47.9076 226.761 48.9402 227.464 49.8098C228.221 50.625 229.167 51.25 230.303 51.6848C231.438 52.0652 232.628 52.2554 233.872 52.2554ZM282.18 59.1848C278.935 59.1848 276.205 58.6141 273.988 57.4728C271.771 56.3315 270.121 54.6467 269.04 52.4185C267.958 50.1359 267.418 47.3098 267.418 43.9402V25.4348H261.01C260.469 25.4348 260.009 25.2446 259.631 24.8641C259.252 24.4837 259.063 24.0217 259.063 23.4783V18.75C259.063 18.2065 259.252 17.7446 259.631 17.3641C260.009 16.9837 260.469 16.7935 261.01 16.7935H267.418V3.26087C267.418 2.71739 267.58 2.25544 267.904 1.875C268.283 1.49457 268.769 1.30434 269.364 1.30434H275.934C276.475 1.30434 276.935 1.49457 277.313 1.875C277.692 2.25544 277.881 2.71739 277.881 3.26087V16.7935H288.02C288.561 16.7935 289.02 16.9837 289.399 17.3641C289.778 17.7446 289.967 18.2065 289.967 18.75V23.4783C289.967 24.0217 289.778 24.4837 289.399 24.8641C289.02 25.2446 288.561 25.4348 288.02 25.4348H277.881V43.125C277.881 45.3533 278.26 47.0924 279.017 48.3424C279.828 49.5924 281.207 50.2174 283.153 50.2174H288.75C289.291 50.2174 289.751 50.4076 290.129 50.788C290.508 51.1685 290.697 51.6304 290.697 52.1739V57.2283C290.697 57.7717 290.508 58.2337 290.129 58.6141C289.751 58.9946 289.291 59.1848 288.75 59.1848H282.18ZM312.182 60C308.937 60 306.153 59.6196 303.827 58.8587C301.556 58.0978 299.691 57.1467 298.231 56.0054C296.77 54.8641 295.689 53.7228 294.986 52.5815C294.283 51.4402 293.904 50.4891 293.85 49.7283C293.796 49.1304 293.959 48.6685 294.337 48.3424C294.77 47.962 295.229 47.7717 295.716 47.7717H302.124C302.34 47.7717 302.529 47.7989 302.692 47.8533C302.854 47.9076 303.07 48.0707 303.341 48.3424C304.044 48.9402 304.774 49.5652 305.531 50.2174C306.342 50.8696 307.288 51.4402 308.37 51.9293C309.451 52.3641 310.803 52.5815 312.425 52.5815C314.534 52.5815 316.292 52.1739 317.698 51.3587C319.158 50.4891 319.888 49.2663 319.888 47.6902C319.888 46.5489 319.563 45.625 318.914 44.9185C318.319 44.212 317.184 43.587 315.507 43.0435C313.831 42.4457 311.452 41.8207 308.37 41.1685C305.341 40.462 302.827 39.5652 300.826 38.4783C298.825 37.3913 297.338 36.0326 296.365 34.4022C295.392 32.7717 294.905 30.8696 294.905 28.6957C294.905 26.5761 295.527 24.5652 296.77 22.663C298.068 20.7065 299.961 19.1033 302.448 17.8533C304.99 16.6033 308.126 15.9783 311.857 15.9783C314.777 15.9783 317.319 16.3587 319.482 17.1196C321.645 17.8261 323.429 18.7228 324.835 19.8098C326.295 20.8967 327.404 22.0109 328.161 23.1522C328.918 24.2391 329.324 25.1902 329.378 26.0054C329.432 26.6033 329.27 27.0924 328.891 27.4728C328.513 27.7989 328.08 27.962 327.593 27.962H321.591C321.321 27.962 321.077 27.9076 320.861 27.7989C320.645 27.6902 320.428 27.5543 320.212 27.3913C319.617 26.8478 318.968 26.2772 318.265 25.6793C317.562 25.0815 316.697 24.5652 315.67 24.1304C314.696 23.6413 313.399 23.3967 311.776 23.3967C309.721 23.3967 308.153 23.8587 307.072 24.7826C305.99 25.6522 305.45 26.7663 305.45 28.125C305.45 29.0489 305.693 29.8641 306.18 30.5707C306.72 31.2228 307.775 31.8478 309.343 32.4457C310.911 33.0435 313.29 33.6685 316.481 34.3207C320.104 34.9728 322.97 35.9511 325.079 37.2554C327.242 38.5054 328.756 39.9728 329.621 41.6576C330.54 43.288 331 45.1087 331 47.1196C331 49.5652 330.27 51.7663 328.81 53.7228C327.404 55.6793 325.295 57.2283 322.483 58.3696C319.725 59.4565 316.292 60 312.182 60Z" fill="black"/>
</svg>
