<svg width="151" height="52" viewBox="0 0 151 52" fill="none" xmlns="http://www.w3.org/2000/svg">
<path d="M8.6949 12.7744V50.5494H0V12.7744H8.6949Z" fill="black"/>
<path d="M10.2163 50.5505V27.0745H18.3315V30.4555H18.4281C18.4764 30.3345 18.573 30.1655 18.718 29.9725C18.8387 29.7795 19.1286 29.4655 19.5874 29.0065C20.0946 28.5715 20.6019 28.1855 21.1332 27.8475C21.6404 27.4605 22.2925 27.1465 23.0654 26.8815C23.8866 26.5675 24.7561 26.3975 25.6738 26.3975C26.495 26.3975 27.3404 26.5425 28.1857 26.7845C29.0793 26.9775 29.7314 27.2195 30.1179 27.4605L30.7941 27.8475L27.4128 34.7065C26.3743 33.8855 24.9493 33.4505 23.162 33.4505C22.1959 33.4505 21.3506 33.6915 20.6502 34.1265C19.9256 34.5135 19.4184 35.0445 19.1044 35.6725C18.8387 36.2525 18.6455 36.7835 18.5247 37.2185C18.3798 37.6045 18.3315 37.9425 18.3315 38.1845V50.5505H10.2163Z" fill="black"/>
<path d="M31.36 47.7485C28.7757 45.4305 27.4956 42.4835 27.4956 38.8605C27.4956 35.1895 28.8482 32.1945 31.5532 29.8755C34.2583 27.5575 37.5913 26.3975 41.6006 26.3975C45.5857 26.3975 48.8949 27.6055 51.5509 29.9725C54.2569 32.2915 55.6089 35.2615 55.6089 38.8605C55.6089 42.4835 54.2809 45.4305 51.6479 47.7485C48.9909 50.0675 45.6582 51.2265 41.6006 51.2265C37.3981 51.2265 33.9926 50.0675 31.36 47.7485ZM37.6396 34.8995C36.6011 35.9385 36.0939 37.2665 36.0939 38.8605C36.0939 40.4785 36.5769 41.8075 37.543 42.8215C38.5574 43.8605 39.9099 44.3675 41.6006 44.3675C43.1947 44.3675 44.4989 43.8605 45.465 42.8215C46.4794 41.7345 47.0109 40.4065 47.0109 38.8605C47.0109 37.2665 46.4794 35.9385 45.465 34.8995C44.4264 33.8125 43.1464 33.2575 41.6006 33.2575C40.0549 33.2575 38.7265 33.8125 37.6396 34.8995Z" fill="black"/>
<path d="M55.5281 50.5505V27.0745H63.6431V29.4895H63.7401C65.8651 27.4365 68.1121 26.3975 70.5031 26.3975C71.6621 26.3975 72.8211 26.5675 73.9811 26.8815C75.1401 27.1465 76.2271 27.6055 77.2651 28.2335C78.2801 28.8855 79.1251 29.8275 79.7771 31.0355C80.4781 32.1945 80.8401 33.5475 80.8401 35.0925V50.5505H72.7251V37.3145C72.7251 36.1075 72.3381 35.0445 71.5651 34.1265C70.7921 33.1605 69.7541 32.6775 68.4741 32.6775C67.2421 32.6775 66.1071 33.1605 65.0931 34.1265C64.1261 35.0925 63.6431 36.1555 63.6431 37.3145V50.5505H55.5281Z" fill="black"/>
<path d="M90.613 12.7744V43.0134H103.558V50.5494H81.918V12.7744H90.613Z" fill="black"/>
<path d="M104.682 14.033C105.648 13.067 106.759 12.584 108.063 12.584C109.416 12.584 110.527 13.067 111.445 14.033C112.411 14.951 112.894 16.062 112.894 17.414C112.894 18.719 112.411 19.83 111.445 20.796C110.527 21.714 109.416 22.148 108.063 22.148C106.759 22.148 105.648 21.714 104.682 20.796C103.764 19.83 103.329 18.719 103.329 17.414C103.329 16.062 103.764 14.951 104.682 14.033ZM103.909 27.075V50.552H112.024V27.075H103.909Z" fill="black"/>
<path d="M115.3 27.074V22.05C115.3 18.572 116.097 15.771 117.716 13.645C119.31 11.52 121.58 10.457 124.478 10.457C125.686 10.457 126.845 10.65 127.956 11.037C129.043 11.375 129.84 11.713 130.371 12.099L131.144 12.582L128.343 18.282C127.57 17.896 126.749 17.703 125.927 17.703C124.889 17.703 124.212 18.065 123.899 18.765C123.56 19.418 123.415 20.601 123.415 22.34V27.074H128.729V33.257H123.415V50.55H115.3V33.257H111.919V27.074H115.3Z" fill="black"/>
<path d="M150.903 39.9235H133.9C133.9 41.6135 134.407 42.8215 135.446 43.5945C136.533 44.3675 137.716 44.7535 139.02 44.7535C140.301 44.7535 141.339 44.6085 142.112 44.2705C142.885 43.8845 143.754 43.1835 144.72 42.1455L150.614 45.1405C148.15 49.1975 144.092 51.2265 138.441 51.2265C134.89 51.2265 131.823 50.0435 129.263 47.6525C126.751 45.2125 125.495 42.2905 125.495 38.8605C125.495 35.4555 126.751 32.5325 129.263 30.0695C131.823 27.6295 134.89 26.3975 138.441 26.3975C142.112 26.3975 145.107 27.5085 147.425 29.6825C149.792 31.8085 151 34.8755 151 38.8605C151 39.3915 150.952 39.7305 150.903 39.9235ZM134.093 35.4795H143.078C142.885 34.2715 142.402 33.3295 141.629 32.6775C140.856 31.9775 139.842 31.6145 138.634 31.6145C137.281 31.6145 136.17 31.9775 135.349 32.6775C134.576 33.4025 134.142 34.3195 134.093 35.4795Z" fill="black"/>
<mask id="mask0_2520_76" style="mask-type:luminance" maskUnits="userSpaceOnUse" x="28" y="0" width="26" height="31">
<path d="M28.2883 0H53.02V30.915H28.2883V0Z" fill="black"/>
</mask>
<g mask="url(#mask0_2520_76)">
<mask id="mask1_2520_76" style="mask-type:luminance" maskUnits="userSpaceOnUse" x="30" y="2" width="28" height="28">
<path d="M30.2446 7.41264L52.658 2.84863L57.223 25.2616L34.8094 29.8506L30.2446 7.41264Z" fill="black"/>
</mask>
<g mask="url(#mask1_2520_76)">
<mask id="mask2_2520_76" style="mask-type:luminance" maskUnits="userSpaceOnUse" x="30" y="2" width="28" height="28">
<path d="M30.2446 7.41068L52.658 2.84668L57.223 25.2597L34.8094 29.8487L30.2446 7.41068Z" fill="black"/>
</mask>
<g mask="url(#mask2_2520_76)">
<path fill-rule="evenodd" clip-rule="evenodd" d="M48.0691 7.65231C37.7081 9.70531 33.1433 15.6703 34.7132 25.7903C34.7132 25.9113 34.5441 25.9593 34.4958 25.8383C33.3607 22.6503 32.8535 19.6553 33.1433 16.9023C34.1335 7.79731 44.35 4.53631 52.3201 5.71931C52.7311 5.79231 52.9001 6.25131 52.6341 6.56531C47.8041 12.3613 51.1611 24.8243 35.9691 22.2403C36.7662 14.9463 40.4132 9.80131 48.0691 7.65231Z" fill="black"/>
</g>
</g>
</g>
<mask id="mask3_2520_76" style="mask-type:luminance" maskUnits="userSpaceOnUse" x="15" y="12" width="20" height="13">
<path d="M15.9224 12.3672H34.4714V24.7332H15.9224V12.3672Z" fill="black"/>
</mask>
<g mask="url(#mask3_2520_76)">
<mask id="mask4_2520_76" style="mask-type:luminance" maskUnits="userSpaceOnUse" x="18" y="11" width="16" height="16">
<path d="M18.6758 12.4387L32.3219 11.0137L33.771 24.6597L20.1008 26.1087L18.6758 12.4387Z" fill="black"/>
</mask>
<g mask="url(#mask4_2520_76)">
<mask id="mask5_2520_76" style="mask-type:luminance" maskUnits="userSpaceOnUse" x="19" y="10" width="16" height="17">
<path d="M32.6842 10.9648L19.0381 12.4138L20.4631 26.0599L34.1091 24.6348L32.6842 10.9648Z" fill="black"/>
</mask>
<g mask="url(#mask5_2520_76)">
<path fill-rule="evenodd" clip-rule="evenodd" d="M22.0568 14.4881C28.6504 13.7641 32.5148 16.4691 33.505 22.8211C33.505 22.9171 33.6258 22.8931 33.6258 22.8211C33.6982 20.6951 33.4567 18.8121 32.7563 17.2181C30.4135 11.9521 23.675 11.9281 19.1343 14.1501C18.917 14.2711 18.8928 14.5611 19.1102 14.7061C23.0953 17.2661 23.4576 25.3811 32.0559 20.9371C30.1961 16.7341 27.0322 14.3431 22.0568 14.4881Z" fill="black"/>
</g>
</g>
</g>
</svg>
