<svg width="220" height="30" viewBox="0 0 220 30" fill="none" xmlns="http://www.w3.org/2000/svg">
<path fill-rule="evenodd" clip-rule="evenodd" d="M49.6621 6.65527C54.2975 6.65527 61.1817 10.4548 61.1817 19.1062V19.9756H42.732C43.007 23.363 46.1741 25.7889 49.5246 25.7889C52.0944 25.7889 54.2975 24.5531 55.9498 22.3558L59.9885 24.5995C57.327 27.9405 53.655 29.9549 49.6621 30C41.9062 30 37.4083 24.1873 37.4083 18.3276C37.4083 12.4686 41.9062 6.65527 49.6621 6.65527ZM99.4716 6.65527C104.199 6.65527 107.274 8.8983 109.431 12.0114L105.254 14.483C103.969 12.5143 102.18 11.1413 99.4716 11.1413C95.2953 11.1413 92.2664 14.3458 92.2664 18.3276C92.2664 22.3101 95.2953 25.5146 99.4716 25.5146C102.088 25.5146 103.969 24.1873 105.254 22.1729L109.431 24.6446C107.457 27.7576 103.694 30 99.4716 30C91.715 30 87.2178 24.1873 87.2178 18.3276C87.2178 12.4686 91.715 6.65527 99.4716 6.65527ZM128.103 6.65527C135.86 6.65527 140.357 12.4686 140.357 18.3276C140.357 24.1873 135.86 30 128.103 30C120.347 30 115.849 24.1873 115.849 18.3276C115.849 12.4686 120.347 6.65527 128.103 6.65527ZM201.082 6.65527C205.81 6.65527 208.884 8.8983 211.042 12.0114L206.865 14.483C205.58 12.5143 203.79 11.1413 201.082 11.1413C196.906 11.1413 193.877 14.3458 193.877 18.3276C193.877 22.3101 196.906 25.5146 201.082 25.5146C203.698 25.5146 205.58 24.1873 206.865 22.1729L211.042 24.6446C209.068 27.7576 205.305 30 201.082 30C193.326 30 188.828 24.1873 188.828 18.3276C188.828 12.4686 193.326 6.65527 201.082 6.65527ZM157.691 6.61543C167.437 6.61543 167.708 15.2253 167.715 15.5697L167.715 29.4285H162.934L162.935 16.2559C162.944 15.996 163.033 11.4477 157.691 11.4477C152.35 11.4477 152.438 15.996 152.448 16.2559L152.448 29.4285H147.667L147.668 15.5697C147.674 15.2253 147.946 6.61543 157.691 6.61543ZM21.5251 6.65527C25.8854 6.65527 29.6485 9.90551 29.6485 15.5353V29.4056H24.8756V15.581C24.8756 12.9265 23.1774 11.4157 21.2036 11.4157C18.9095 11.4157 17.2107 12.7893 17.2107 16.2224V29.4056H12.4378V16.2224C12.4378 12.7893 10.7396 11.4157 8.44489 11.4157C6.47169 11.4157 4.77354 12.9265 4.77354 15.581V29.4056H0V15.5353C0 9.90551 3.76369 6.65527 8.12399 6.65527C11.4744 6.65527 13.9067 8.25753 14.7784 10.592H14.8707C15.7424 8.25753 18.1747 6.65527 21.5251 6.65527ZM181.072 7.25032V29.4056H176.299V7.25032H181.072ZM74.6936 8.62919C78.5404 6.13207 83.0762 6.79832 83.0762 6.79832L82.2 11.0897C74.9663 10.1492 74.7064 15.7097 74.6972 16.0773L74.6968 16.0964L74.6936 29.4056H69.9207V7.25032H74.6936V8.62919ZM128.358 11.1413C124.181 11.1413 121.153 14.3458 121.153 18.3276C121.153 22.3101 124.181 25.5146 128.358 25.5146C132.535 25.5146 135.564 22.3101 135.564 18.3276C135.564 14.3458 132.535 11.1413 128.358 11.1413ZM49.0196 10.867C45.9908 10.867 43.512 12.7436 42.732 16.0389H55.583C54.5732 12.6521 52.0492 10.867 49.0196 10.867ZM216.248 0.407586C218.325 0.407586 220 2.07843 220 4.14967C220 6.22091 218.325 7.89175 216.248 7.89175C214.171 7.89175 212.496 6.22091 212.496 4.14967C212.496 2.07843 214.171 0.407586 216.248 0.407586ZM216.248 1.25476C214.745 1.25476 213.482 2.46772 213.482 4.14967C213.482 5.83226 214.745 7.04522 216.248 7.04522C217.751 7.04522 219.013 5.83226 219.013 4.14967C219.013 2.46772 217.751 1.25476 216.248 1.25476ZM216.386 2.05556C217.476 2.05556 217.969 2.47883 217.969 3.326C217.969 3.93216 217.671 4.34431 216.971 4.44752L218.015 6.22091H216.994L215.995 4.48148H215.674V6.22091H214.756V2.05556H216.386ZM178.665 0C180.133 0 181.326 1.1901 181.326 2.65519C181.326 4.12027 180.133 5.31037 178.665 5.31037C177.196 5.31037 176.003 4.12027 176.003 2.65519C176.003 1.1901 177.196 0 178.665 0ZM216.466 2.76492H215.674V3.77213H216.466C216.764 3.77213 217.051 3.57748 217.051 3.26852C217.051 2.95957 216.764 2.76492 216.466 2.76492Z" fill="#010D0A"/>
</svg>
