<svg width="923" height="189" viewBox="0 0 923 189" fill="none" xmlns="http://www.w3.org/2000/svg">
<path d="M131.393 62.4072H154.642V151.276H131.393V62.4072Z" fill="black"/>
<path d="M167.031 62.4072H192.346C202.059 82.9802 210.319 102.712 217.967 129.174H222.249C229.897 102.865 238.157 82.8272 247.717 62.4072H272.496L233.951 151.276H205.883L167.031 62.4072Z" fill="black"/>
<path d="M421.248 136.669H418.036C421.248 143.552 420.866 146.994 420.866 151.353H397.922V32.274L421.172 23.8613C421.172 38.8513 422.089 57.2828 418.954 80.0737H422.166C430.426 64.4719 443.351 59.8066 457.193 59.8066C485.873 59.8066 504.152 80.8384 504.152 106.612C504.152 136.21 481.208 153.953 455.587 153.953C439.756 154.03 427.825 147.452 421.248 136.669ZM452.987 132.692C471.572 132.692 484.802 121.985 484.802 107.071C484.802 92.2339 471.572 81.2973 452.987 81.2973C434.555 81.2973 420.789 92.1574 420.789 107.071C420.789 122.138 434.861 132.692 452.987 132.692Z" fill="black"/>
<path d="M515.241 127.874C515.241 110.513 531.455 104.777 550.422 101.412C567.477 98.3532 582.772 97.7414 582.772 89.3287C582.772 83.1338 575.125 78.0097 563.5 78.0097C552.793 78.0097 544.074 82.1396 540.556 92.1584L518.606 85.1223C525.107 66.4613 544.533 59.8076 564.035 59.8076C589.35 59.8076 606.405 71.1266 606.405 91.3171V123.515C606.405 137.817 607.705 144.088 609.77 151.2H586.673C585.067 147.529 583.996 143.705 587.132 135.446H583.92C578.337 148.065 565.947 153.954 550.804 153.954C532.296 154.03 515.241 145.541 515.241 127.874ZM556.846 136.822C572.907 136.822 583.002 126.957 583.002 117.855V110.055C576.119 112.731 570.077 114.184 560.899 115.791C552.64 117.397 540.632 119.92 540.632 127.568C540.556 133.61 547.592 136.822 556.846 136.822Z" fill="black"/>
<path d="M623.536 106.995C623.536 78.1614 647.398 59.8828 678.295 59.8828C700.092 59.8828 721.659 69.9016 729.307 87.5683L707.511 95.9811C703.075 85.5034 689.92 81.1441 678.142 81.1441C660.323 81.1441 647.78 92.3101 647.78 106.765C647.78 122.673 661.317 132.539 678.525 132.539C691.909 132.539 702.386 127.109 707.663 116.631L729.46 125.044C721.659 143.016 702.233 153.876 678.142 153.876C646.939 154.029 623.536 135.98 623.536 106.995Z" fill="black"/>
<path d="M743.991 33.0388L767.241 23.8613C767.241 45.505 767.7 71.8139 764.717 99.0405H767.776C781.466 84.2035 794.238 73.114 806.781 62.4069H834.619L792.097 98.7346C810.452 116.708 824.906 133.763 839.896 151.276H812.67C802.804 140.11 791.944 128.027 779.86 111.431C775.577 117.473 772.059 121.144 766.017 125.426C767.317 133.686 767.317 142.481 767.317 151.2H744.068V33.0388H743.991Z" fill="black"/>
<path d="M835.691 129.021L857.335 122.367C862.306 132.233 872.325 135.751 881.197 135.751C888.08 135.751 897.64 133.686 897.64 127.338C897.64 120.838 888.386 118.926 880.891 117.014L869.725 114.337C857.488 111.278 840.586 104.165 840.586 87.8746C840.586 70.8197 858.253 60.0361 879.438 60.0361C900.011 60.0361 914.771 69.749 919.283 82.521L897.793 89.1748C895.116 83.4388 888.845 78.1617 878.52 78.1617C870.107 78.1617 863.989 81.5268 863.989 86.4215C863.989 92.7693 875.461 95.6755 884.026 97.5875L892.821 99.4995C902.993 101.718 922.419 106.154 922.419 125.274C922.419 142.787 906.205 154.106 881.35 154.106C858.176 154.03 840.816 144.011 835.691 129.021Z" fill="black"/>
<path d="M358.382 119.766C353.258 129.02 342.933 133.915 330.161 133.915C314.254 133.915 301.176 126.573 299.264 112.424H383.238V107.147C383.238 74.4907 355.935 59.8066 331.079 59.8066C300.334 59.8066 275.938 79.8442 275.938 107.3C275.938 135.521 299.34 153.953 330.391 153.953C354.635 153.953 372.76 142.634 380.102 128.179C382.244 124.355 382.397 119.766 382.397 119.766H358.382ZM330.85 79.003C343.775 79.003 358 84.28 359.606 97.9699H300.334C303.241 86.8039 315.401 79.003 330.85 79.003Z" fill="black"/>
<path fill-rule="evenodd" clip-rule="evenodd" d="M145.999 0H140.263V15.4981L138.581 17.1807L130.245 8.84443L126.164 12.925L134.5 21.2613L132.818 22.9438H117.243V28.6798H132.882L134.515 30.3478L126.164 38.6986L130.251 42.7853L138.587 34.3726L140.263 36.049V51.6236H145.999V35.9725L147.605 34.3664L156.018 42.7791L160.099 38.6986L151.686 30.2858L153.292 28.6798H168.943V22.9438H153.369L151.692 21.2675L160.105 12.9312L156.018 8.84443L147.667 17.1951L145.999 15.5625V0Z" fill="black"/>
<path d="M83.286 64.0899C83.286 67.455 83.439 71.2789 84.5862 78.2386C84.7391 79.2328 83.9743 80.1505 82.9801 80.1505C82.2918 80.1505 81.7564 79.7681 81.4505 79.1563C76.097 66.6137 63.9367 59.96 48.2585 59.96C21.0318 59.96 0 78.9269 0 105.694C0 129.938 17.8197 150.893 48.8703 150.893C62.1012 150.893 74.7968 147.375 82.4448 132.768H82.8271V148.064C82.8271 148.14 82.8271 148.217 82.8271 148.217C81.527 161.983 70.2845 170.013 53.612 170.013C39.8457 170.013 31.2036 166.189 26.0794 157.318C25.697 156.629 24.8558 156.323 24.1675 156.629L6.04187 162.901C5.12411 163.207 4.66523 164.277 5.1241 165.195C14.6075 184.315 35.1805 188.98 54.2239 188.98C81.7564 188.98 106.306 178.502 106.306 142.481V64.0899C106.306 63.1721 105.542 62.4838 104.7 62.4838H85.045C83.9743 62.4073 83.286 63.1721 83.286 64.0899ZM49.941 129.479C31.0506 129.479 17.1314 118.619 17.1314 105.082C17.1314 91.6989 30.8212 81.0683 49.941 81.0683C68.9844 81.0683 83.439 91.546 83.439 105.082C83.439 118.466 69.2138 129.479 49.941 129.479Z" fill="black"/>
</svg>
