<svg width="128" height="32" viewBox="0 0 128 32" fill="none" xmlns="http://www.w3.org/2000/svg">
<path fill-rule="evenodd" clip-rule="evenodd" d="M10.3059 4.54595C9.4652 5.22615 8.89661 6.24701 8.89661 7.64837C8.89661 9.06235 9.4772 10.3888 10.4061 11.7081C11.2499 12.9065 12.3527 14.0609 13.5079 15.2417C13.5761 15.175 13.6445 15.1083 13.7129 15.0417C14.7844 13.9301 15.7995 12.8336 16.5885 11.7006C17.5097 10.3777 18.0901 9.04969 18.1034 7.64616C18.1028 6.25543 17.5351 5.23698 16.6939 4.55545C15.84 3.86361 14.6804 3.50201 13.4992 3.50001C12.318 3.49801 11.1591 3.85568 10.3059 4.54595ZM17.8276 11.6342C18.5836 10.4041 19.0905 9.08601 19.1034 7.6529L19.1034 7.6529V7.64837C19.1034 5.94996 18.3955 4.6471 17.3234 3.77846C16.2635 2.91977 14.8714 2.50233 13.5009 2.50001C12.1304 2.49769 10.7375 2.91044 9.67694 3.76854C8.60387 4.63672 7.89661 5.94219 7.89661 7.64837C7.89661 9.12442 8.42474 10.4705 9.21286 11.7212C7.96035 10.9383 6.61661 10.4098 5.1529 10.3966L5.1529 10.3966H5.14837C3.44996 10.3966 2.1471 11.1045 1.27846 12.1766C0.419766 13.2365 0.00232776 14.6286 9.70882e-06 15.9991C-0.00230835 17.3696 0.410435 18.7625 1.26854 19.8231C2.13672 20.8961 3.44219 21.6034 5.14837 21.6034C6.60053 21.6034 7.92684 21.0922 9.16035 20.3252C8.39693 21.5624 7.89002 22.8874 7.89661 24.3278C7.90434 26.0176 8.61626 27.3206 9.68721 28.1944C10.7467 29.0587 12.1367 29.4882 13.5063 29.4998C14.8759 29.5114 16.2681 29.1054 17.328 28.2434C18.4006 27.3713 19.1034 26.0543 19.1034 24.3255C19.1034 22.9011 18.6263 21.598 17.901 20.386C19.1165 21.1235 20.4168 21.6098 21.8278 21.6034C23.5176 21.5957 24.8206 20.8837 25.6944 19.8128C26.5587 18.7533 26.9882 17.3633 26.9998 15.9937C27.0114 14.6241 26.6054 13.2319 25.7434 12.172C24.8713 11.0994 23.5543 10.3966 21.8255 10.3966C20.3782 10.3966 19.0561 10.8892 17.8276 11.6342ZM14.2139 15.9624C14.2831 15.891 14.3523 15.8194 14.4214 15.7478C15.5165 14.6833 16.5982 13.6773 17.7219 12.896C19.0479 11.9741 20.3894 11.3966 21.8255 11.3966C23.2561 11.3966 24.287 11.966 24.9676 12.8029C25.6583 13.6523 26.0098 14.8065 25.9998 15.9852C25.9898 17.1637 25.6187 18.3237 24.9195 19.1806C24.2297 20.0261 23.2065 20.5971 21.8232 20.6034C20.4216 20.6098 19.0926 20.0317 17.7621 19.1009C16.809 18.4342 15.8799 17.6047 14.943 16.7154C14.7015 16.4626 14.4576 16.2117 14.2139 15.9624ZM12.7478 15.9861C11.5649 17.1434 10.4085 18.2486 9.20812 19.0939C7.88876 20.0228 6.56235 20.6034 5.14837 20.6034C3.74701 20.6034 2.72615 20.0348 2.04595 19.1941C1.35568 18.3409 0.99801 17.182 1.00001 16.0008C1.00201 14.8196 1.36361 13.66 2.05545 12.8061C2.73697 11.9649 3.75538 11.3972 5.14607 11.3966C6.54963 11.4099 7.87764 11.9902 9.20061 12.9115C10.4035 13.7492 11.5654 14.8417 12.7478 15.9861ZM13.4912 16.7074C13.7383 16.9468 13.9867 17.1865 14.2367 17.4239C15.1196 18.3489 15.9424 19.2703 16.604 20.2219C17.5259 21.5479 18.1034 22.8894 18.1034 24.3255C18.1034 25.7561 17.534 26.787 16.6971 27.4676C15.8477 28.1583 14.6935 28.5098 13.5148 28.4998C12.3363 28.4898 11.1763 28.1187 10.3194 27.4195C9.4739 26.7297 8.90293 25.7065 8.8966 24.3232C8.89019 22.9216 9.46828 21.5926 10.3991 20.2621C11.2398 19.0603 12.3392 17.8967 13.4912 16.7074Z" fill="black"/>
<path d="M104.054 25V24.055L106.862 23.569H107.996L110.831 24.055V25H104.054ZM105.863 25C105.881 24.586 105.89 24.046 105.89 23.38C105.908 22.696 105.917 21.994 105.917 21.274C105.935 20.536 105.944 19.888 105.944 19.33V18.007C105.944 17.503 105.935 17.071 105.917 16.711C105.917 16.333 105.908 15.982 105.89 15.658C105.89 15.334 105.881 14.992 105.863 14.632L103.865 14.362V13.471L107.969 11.878L108.374 12.148L108.617 15.604V15.658V19.33C108.617 19.888 108.617 20.536 108.617 21.274C108.635 21.994 108.644 22.696 108.644 23.38C108.662 24.046 108.68 24.586 108.698 25H105.863ZM108.563 17.602L108.05 15.82H108.455C108.725 14.974 109.067 14.263 109.481 13.687C109.913 13.093 110.381 12.643 110.885 12.337C111.407 12.031 111.92 11.878 112.424 11.878C112.874 11.878 113.279 11.986 113.639 12.202C114.017 12.4 114.278 12.706 114.422 13.12C114.404 13.732 114.251 14.209 113.963 14.551C113.693 14.875 113.297 15.037 112.775 15.037C112.451 15.037 112.145 14.965 111.857 14.821C111.587 14.677 111.317 14.47 111.047 14.2L110.318 13.471L111.56 13.39C110.84 13.768 110.228 14.317 109.724 15.037C109.22 15.739 108.833 16.594 108.563 17.602Z" fill="black"/>
<path d="M97.0358 25.351C95.9198 25.351 94.8848 25.099 93.9308 24.595C92.9948 24.073 92.2388 23.317 91.6628 22.327C91.0868 21.319 90.7988 20.095 90.7988 18.655C90.7988 17.197 91.0868 15.964 91.6628 14.956C92.2568 13.948 93.0308 13.183 93.9848 12.661C94.9388 12.139 95.9558 11.878 97.0358 11.878C98.1338 11.878 99.1508 12.139 100.087 12.661C101.041 13.183 101.815 13.948 102.409 14.956C103.003 15.946 103.3 17.179 103.3 18.655C103.3 20.095 103.003 21.319 102.409 22.327C101.833 23.317 101.068 24.073 100.114 24.595C99.1778 25.099 98.1518 25.351 97.0358 25.351ZM97.0358 24.217C97.7378 24.217 98.3318 24.01 98.8178 23.596C99.3218 23.182 99.6998 22.57 99.9518 21.76C100.222 20.932 100.357 19.897 100.357 18.655C100.357 17.395 100.222 16.351 99.9518 15.523C99.6998 14.695 99.3218 14.074 98.8178 13.66C98.3318 13.246 97.7378 13.039 97.0358 13.039C96.3338 13.039 95.7308 13.246 95.2268 13.66C94.7408 14.074 94.3718 14.704 94.1198 15.55C93.8678 16.378 93.7418 17.422 93.7418 18.682C93.7418 19.906 93.8678 20.932 94.1198 21.76C94.3718 22.57 94.7408 23.182 95.2268 23.596C95.7308 24.01 96.3338 24.217 97.0358 24.217Z" fill="black"/>
<path d="M76.1633 25V24.055L78.0533 23.731C78.0713 23.281 78.0803 22.795 78.0803 22.273C78.0803 21.733 78.0803 21.211 78.0803 20.707C78.0983 20.185 78.1073 19.726 78.1073 19.33V7.477L76.0283 7.18V6.262L80.4293 5.074L80.7803 5.317L80.6723 9.421V14.227L80.7533 14.524V22.867V22.921L80.4293 25.297L76.1633 25ZM84.3173 25.351C83.7773 25.351 83.2553 25.27 82.7513 25.108C82.2653 24.946 81.7883 24.658 81.3203 24.244C80.8703 23.83 80.4383 23.272 80.0243 22.57H79.5923L79.8353 21.382C80.4833 22.21 81.1223 22.813 81.7523 23.191C82.3823 23.551 83.0123 23.731 83.6423 23.731C84.2723 23.731 84.8393 23.551 85.3433 23.191C85.8473 22.813 86.2523 22.246 86.5583 21.49C86.8643 20.734 87.0173 19.78 87.0173 18.628C87.0173 16.918 86.7113 15.64 86.0993 14.794C85.4873 13.93 84.6953 13.498 83.7233 13.498C83.3633 13.498 82.9763 13.588 82.5623 13.768C82.1483 13.93 81.7163 14.191 81.2663 14.551C80.8163 14.893 80.3303 15.343 79.8083 15.901L79.5653 14.632H80.1323C80.5823 14.002 81.0503 13.489 81.5363 13.093C82.0223 12.679 82.5263 12.373 83.0483 12.175C83.5883 11.977 84.1463 11.878 84.7223 11.878C85.6763 11.878 86.5313 12.139 87.2873 12.661C88.0613 13.165 88.6733 13.903 89.1233 14.875C89.5913 15.847 89.8253 17.044 89.8253 18.466C89.8253 19.87 89.5823 21.094 89.0963 22.138C88.6103 23.164 87.9443 23.956 87.0983 24.514C86.2703 25.072 85.3433 25.351 84.3173 25.351Z" fill="black"/>
<path d="M66.5754 25V24.055L69.3834 23.569H70.5174L73.3524 24.055V25H66.5754ZM68.3844 25C68.4024 24.586 68.4114 24.046 68.4114 23.38C68.4294 22.696 68.4384 21.994 68.4384 21.274C68.4564 20.536 68.4654 19.888 68.4654 19.33V18.007C68.4654 17.503 68.4564 17.071 68.4384 16.711C68.4384 16.333 68.4294 15.982 68.4114 15.658C68.4114 15.334 68.4024 14.992 68.3844 14.632L66.3864 14.362V13.471L70.4904 11.878L70.8954 12.148L71.1384 15.604V15.658V19.33C71.1384 19.888 71.1384 20.536 71.1384 21.274C71.1564 21.994 71.1654 22.696 71.1654 23.38C71.1834 24.046 71.2014 24.586 71.2194 25H68.3844ZM71.0844 17.602L70.5714 15.82H70.9764C71.2464 14.974 71.5884 14.263 72.0024 13.687C72.4344 13.093 72.9024 12.643 73.4064 12.337C73.9284 12.031 74.4414 11.878 74.9454 11.878C75.3954 11.878 75.8004 11.986 76.1604 12.202C76.5384 12.4 76.7994 12.706 76.9434 13.12C76.9254 13.732 76.7724 14.209 76.4844 14.551C76.2144 14.875 75.8184 15.037 75.2964 15.037C74.9724 15.037 74.6664 14.965 74.3784 14.821C74.1084 14.677 73.8384 14.47 73.5684 14.2L72.8394 13.471L74.0814 13.39C73.3614 13.768 72.7494 14.317 72.2454 15.037C71.7414 15.739 71.3544 16.594 71.0844 17.602Z" fill="black"/>
<path d="M58.017 25.351C57.045 25.351 56.217 25.072 55.533 24.514C54.849 23.956 54.507 23.128 54.507 22.03C54.507 21.49 54.624 20.977 54.858 20.491C55.092 20.005 55.533 19.555 56.181 19.141C56.847 18.709 57.81 18.313 59.07 17.953C59.502 17.809 59.943 17.674 60.393 17.548C60.861 17.422 61.329 17.296 61.797 17.17C62.265 17.026 62.742 16.891 63.228 16.765V17.683C62.58 17.863 61.959 18.052 61.365 18.25C60.789 18.448 60.249 18.628 59.745 18.79C59.007 19.042 58.449 19.321 58.071 19.627C57.711 19.933 57.468 20.257 57.342 20.599C57.234 20.923 57.18 21.256 57.18 21.598C57.18 22.282 57.369 22.786 57.747 23.11C58.143 23.416 58.629 23.569 59.205 23.569C59.511 23.569 59.808 23.524 60.096 23.434C60.384 23.326 60.726 23.146 61.122 22.894C61.518 22.624 62.031 22.246 62.661 21.76L63.012 23.056H62.121C61.635 23.578 61.185 24.01 60.771 24.352C60.357 24.694 59.934 24.946 59.502 25.108C59.088 25.27 58.593 25.351 58.017 25.351ZM64.416 25.297C63.624 25.297 63.003 25.063 62.553 24.595C62.121 24.127 61.887 23.488 61.851 22.678V22.57V16.333C61.851 15.469 61.77 14.803 61.608 14.335C61.446 13.849 61.185 13.516 60.825 13.336C60.465 13.156 59.997 13.066 59.421 13.066C59.097 13.066 58.746 13.102 58.368 13.174C57.99 13.228 57.558 13.336 57.072 13.498L58.26 12.661L57.72 14.848C57.63 15.37 57.45 15.757 57.18 16.009C56.928 16.261 56.613 16.387 56.235 16.387C55.839 16.387 55.524 16.288 55.29 16.09C55.074 15.892 54.939 15.613 54.885 15.253C55.083 14.227 55.659 13.408 56.613 12.796C57.567 12.184 58.773 11.878 60.231 11.878C61.221 11.878 62.022 12.04 62.634 12.364C63.264 12.67 63.732 13.174 64.038 13.876C64.344 14.56 64.497 15.46 64.497 16.576V22.435C64.497 22.939 64.569 23.299 64.713 23.515C64.875 23.731 65.091 23.839 65.361 23.839C65.577 23.839 65.757 23.785 65.901 23.677C66.063 23.569 66.225 23.416 66.387 23.218L66.9 23.731C66.612 24.289 66.261 24.694 65.847 24.946C65.451 25.18 64.974 25.297 64.416 25.297Z" fill="black"/>
<path d="M35.607 25V23.947L39.063 23.542H39.738L43.221 23.947V25H35.607ZM37.875 25C37.911 24.118 37.938 23.218 37.956 22.3C37.974 21.364 37.983 20.419 37.983 19.465C37.983 18.493 37.983 17.539 37.983 16.603V15.361C37.983 14.425 37.983 13.489 37.983 12.553C37.983 11.599 37.974 10.654 37.956 9.718C37.938 8.782 37.911 7.873 37.875 6.991H40.953C40.935 7.855 40.917 8.755 40.899 9.691C40.881 10.627 40.872 11.572 40.872 12.526C40.872 13.48 40.872 14.425 40.872 15.361V16.252C40.872 17.296 40.872 18.322 40.872 19.33C40.872 20.32 40.881 21.292 40.899 22.246C40.917 23.182 40.935 24.1 40.953 25H37.875ZM39.414 16.387V15.172H50.322V16.387H39.414ZM46.515 25V23.947L49.998 23.542H50.673L54.129 23.947V25H46.515ZM48.783 25C48.819 24.118 48.837 23.209 48.837 22.273C48.855 21.337 48.864 20.365 48.864 19.357C48.864 18.349 48.864 17.314 48.864 16.252V15.361C48.864 14.425 48.864 13.489 48.864 12.553C48.864 11.599 48.855 10.654 48.837 9.718C48.837 8.782 48.819 7.873 48.783 6.991H51.834C51.816 7.855 51.798 8.755 51.78 9.691C51.762 10.627 51.753 11.572 51.753 12.526C51.753 13.48 51.753 14.425 51.753 15.361V16.603C51.753 17.521 51.753 18.457 51.753 19.411C51.753 20.365 51.762 21.31 51.78 22.246C51.798 23.182 51.816 24.1 51.834 25H48.783ZM35.607 8.044V6.991H43.221V8.044L39.738 8.449H39.063L35.607 8.044ZM46.515 8.044V6.991H54.129V8.044L50.673 8.449H49.998L46.515 8.044Z" fill="black"/>
<path d="M119.469 9.40909L118.08 6.27273H118.642L119.614 8.57386L120.585 6.27273H121.148L119.759 9.40909H119.469ZM117.977 9.40909V6.27273H118.523V9.40909H117.977ZM120.705 9.40909V6.27273H121.25V9.40909H120.705ZM115.932 9.40909V6.54545H116.477V9.40909H115.932ZM114.977 6.75V6.27273H117.432V6.75H114.977Z" fill="black"/>
</svg>
