<svg class="faq-icon" viewBox="0 0 52 51" fill="currentColor" xmlns="http://www.w3.org/2000/svg">
<path d="M26.74 30.71C26.8061 29.6168 27.2696 28.5854 28.0431 27.81C28.8167 27.0346 29.8469 26.5687 30.94 26.5L51.08 25.28L30.94 24.06C29.8469 23.9913 28.8167 23.5254 28.0431 22.75C27.2696 21.9746 26.8061 20.9432 26.74 19.85L25.54 0L24.34 19.85C24.2739 20.9432 23.8104 21.9746 23.0369 22.75C22.2633 23.5254 21.2331 23.9913 20.14 24.06L0 25.28L20.14 26.5C21.2331 26.5687 22.2633 27.0346 23.0369 27.81C23.8104 28.5854 24.2739 29.6168 24.34 30.71L25.54 50.56L26.74 30.71Z" fill="currentColor"></path>
</svg>